<?xml version="1.0" encoding="UTF-8" standalone="no"?>
<svg width="127px" height="125px" viewBox="0 0 127 125" version="1.1" xmlns="http://www.w3.org/2000/svg" xmlns:xlink="http://www.w3.org/1999/xlink">
    <!-- Generator: Sketch 3.8.3 (29802) - http://www.bohemiancoding.com/sketch -->
    <title>Artboard 3 white</title>
    <desc>Created with Sketch.</desc>
    <defs></defs>
    <g id="Page-1" stroke="none" stroke-width="1" fill="none" fill-rule="evenodd">
        <g id="Artboard-3-white" transform="translate(-610.000000, -948.000000)">
            <g id="2nd" transform="translate(610.000000, 948.000000)">
                <g id="Group-7" fill="#FFFFFF" opacity="0.5">
                    <ellipse id="Oval-9" cx="44.1176471" cy="7.35294118" rx="7.35294118" ry="7.35294118"></ellipse>
                    <ellipse id="Oval-9" cx="7.35294118" cy="7.35294118" rx="7.35294118" ry="7.35294118"></ellipse>
                    <path d="M80.8823529,14.7058824 C76.8214357,14.7058824 73.5294118,11.4138585 73.5294118,7.35294118 C73.5294118,3.2920239 76.8214357,0 80.8823529,0 C84.9432702,0 88.2352941,3.2920239 88.2352941,7.35294118 C88.2352941,11.4138585 84.9432702,14.7058824 80.8823529,14.7058824" id="Oval-9-Copy-3"></path>
                    <ellipse id="Oval-9-Copy-8" cx="117.647059" cy="7.35294118" rx="7.35294118" ry="7.35294118"></ellipse>
                </g>
                <g id="Group-7-Copy-3" transform="translate(0.000000, 110.294118)" fill="#FFFFFF" opacity="0.5">
                    <circle id="Oval-9" cx="44.1176471" cy="7.35294118" r="7.35294118"></circle>
                    <ellipse id="Oval-9" cx="7.35294118" cy="7.35294118" rx="7.35294118" ry="7.35294118"></ellipse>
                    <path d="M80.8823529,14.7058824 C76.8214357,14.7058824 73.5294118,11.4138585 73.5294118,7.35294118 C73.5294118,3.2920239 76.8214357,0 80.8823529,0 C84.9432702,0 88.2352941,3.2920239 88.2352941,7.35294118 C88.2352941,11.4138585 84.9432702,14.7058824 80.8823529,14.7058824" id="Oval-9-Copy-3"></path>
                    <ellipse id="Oval-9-Copy-8" cx="117.647059" cy="7.35294118" rx="7.35294118" ry="7.35294118"></ellipse>
                </g>
                <g id="Group-7-Copy" transform="translate(0.000000, 34.926471)">
                    <ellipse id="Oval-9" fill="#FFFFFF" opacity="0.7" cx="44.1176471" cy="9.19117647" rx="7.35294118" ry="7.35294118"></ellipse>
                    <circle id="Oval-9" fill="#FFFFFF" opacity="0.5" cx="7.35294118" cy="9.19117647" r="7.35294118"></circle>
                    <path d="M80.8823529,16.5441176 C76.8214357,16.5441176 73.5294118,13.2520937 73.5294118,9.19117647 C73.5294118,5.13025919 76.8214357,1.83823529 80.8823529,1.83823529 C84.9432702,1.83823529 88.2352941,5.13025919 88.2352941,9.19117647 C88.2352941,13.2520937 84.9432702,16.5441176 80.8823529,16.5441176" id="Oval-9-Copy-3" fill="#FFFFFF" opacity="0.85"></path>
                    <ellipse id="Oval-9-Copy-8" fill="#DB4339" cx="117.647059" cy="9.19117647" rx="9.19117647" ry="9.19117647"></ellipse>
                </g>
                <g id="Group-7-Copy-2" transform="translate(0.000000, 73.529412)" fill="#FFFFFF">
                    <path d="M36.7647059,7.35294118 C36.7647059,3.2920239 40.0567298,0 44.1176471,0 C48.1785643,0 51.4705882,3.2920239 51.4705882,7.35294118 C51.4705882,11.4138585 48.1785643,14.7058824 44.1176471,14.7058824 C40.0567298,14.7058824 36.7647059,11.4138585 36.7647059,7.35294118 Z" id="Oval-9" opacity="0.85"></path>
                    <ellipse id="Oval-9" opacity="0.95" cx="7.35294118" cy="7.35294118" rx="7.35294118" ry="7.35294118"></ellipse>
                    <path d="M80.8823529,14.7058824 C76.8214357,14.7058824 73.5294118,11.4138585 73.5294118,7.35294118 C73.5294118,3.2920239 76.8214357,0 80.8823529,0 C84.9432702,0 88.2352941,3.2920239 88.2352941,7.35294118 C88.2352941,11.4138585 84.9432702,14.7058824 80.8823529,14.7058824" id="Oval-9-Copy-3" opacity="0.7"></path>
                    <ellipse id="Oval-9-Copy-8" opacity="0.5" cx="117.647059" cy="7.35294118" rx="7.35294118" ry="7.35294118"></ellipse>
                </g>
            </g>
        </g>
    </g>
</svg>